{"title":"Six.Nations.Rugby.Highlights.Weekend.3-2013-02-24-hdtv.x264 ","uid":8190041,"size":467987878,"categoryP":"video","categoryS":"tv_shows","magnet":"?xt=urn:btih:37fa7356938d8094feeb9737786d4279c578814a&amp;dn=Six.Nations.Rugby.Highlights.Weekend.3-2013-02-24-hdtv.x264+&amp;tr=udp%3A%2F%2Ftracker.openbittorrent.com%3A80&amp;tr=udp%3A%2F%2Fopen.demonii.com%3A1337&amp;tr=udp%3A%2F%2Ftracker.coppersurfer.tk%3A6969&amp;tr=udp%3A%2F%2Fexodus.desync.com%3A6969","seeders":0,"leechers":1,"uploader":"rugbybill","files":1,"time":1361804285,"description":"SPORT: Six Nations Rugby Highlights\nOn: BBC HD \nDate: Sunday 24th February 2013 \nTime: 23:05 to 23:50 \n\nThe best of the action and reaction from the third weekend of the Six Nations. England face French resistance at Twickenham, Italy vie to cause an upset at home to Wales, and Scotland host Ireland.\n\n\nGeneral\nComplete name                            : 2013.02.24.6N.Highlights.hdtv.x264.mp4\nFormat                                   : MPEG-4\nFormat profile                           : Base Media\nCodec ID                                 : isom\nFile size                                : 447 MiB\nDuration                                 : 43mn 57s\nOverall bit rate mode                    : Variable\nOverall bit rate                         : 1 423 Kbps\n\nVideo\nID                                       : 1\nFormat                                   : AVC\nFormat/Info                              : Advanced Video Codec\nFormat profile                           : &lt;a class=&quot;__cf_email__&quot; href=&quot;/cdn-cgi/l/email-protection&quot; data-cfemail=&quot;d59dbcb2bd9599e6fbe4&quot;&gt;[email&amp;#160;protected]&lt;/a&gt;&lt;script cf-hash='f9e31' type=&quot;text/javascript&quot;&gt;\n/* &lt;![CDATA[ */!function(){try{var t=&quot;currentScript&quot;in document?document.currentScript:function(){for(var t=document.getElementsByTagName(&quot;script&quot;),e=t.length;e--;)if(t[e].getAttribute(&quot;cf-hash&quot;))return t[e]}();if(t&amp;&amp;t.previousSibling){var e,r,n,i,c=t.previousSibling,a=c.getAttribute(&quot;data-cfemail&quot;);if(a){for(e=&quot;&quot;,r=parseInt(a.substr(0,2),16),n=2;a.length-n;n+=2)i=parseInt(a.substr(n,2),16)^r,e+=String.fromCharCode(i);e=document.createTextNode(e),c.parentNode.replaceChild(e,c)}}}catch(u){}}();/* ]]&gt; */&lt;/script&gt;\nFormat settings, CABAC                   : Yes\nFormat settings, ReFrames                : 15 frames\nCodec ID                                 : avc1\nCodec ID/Info                            : Advanced Video Coding\nDuration                                 : 43mn 57s\nBit rate                                 : 1 295 Kbps\nMaximum bit rate                         : 6 206 Kbps\nWidth                                    : 720 pixels\nHeight                                   : 416 pixels\nDisplay aspect ratio                     : 1.731\nFrame rate mode                          : Constant\nFrame rate                               : 25.000 fps\nColor space                              : YUV\nChroma subsampling                       : 4:2:0\nBit depth                                : 8 bits\nScan type                                : Progressive\nBits/(Pixel*Frame)                       : 0.173\nStream size                              : 407 MiB (91%)\nWriting library                          : x264 core 129 r2245 bc13772\n\nAudio\nID                                       : 2\nFormat                                   : AAC\nFormat/Info                              : Advanced Audio Codec\nFormat profile                           : LC\nCodec ID                                 : 40\nDuration                                 : 43mn 57s\nBit rate mode                            : Variable\nBit rate                                 : 124 Kbps\nMaximum bit rate                         : 129 Kbps\nChannel(s)                               : 2 channels\nChannel positions                        : Front: L R\nSampling rate                            : 48.0 KHz\nCompression mode                         : Lossy\nDelay relative to video                  : 80ms\nStream size                              : 38.9 MiB (9%)\nLanguage                                 : English\n","torrent":{"xt":"urn:btih:37fa7356938d8094feeb9737786d4279c578814a","amp;dn":"Six.Nations.Rugby.Highlights.Weekend.3-2013-02-24-hdtv.x264+","amp;tr":["udp%3A%2F%2Ftracker.openbittorrent.com%3A80","udp%3A%2F%2Fopen.demonii.com%3A1337","udp%3A%2F%2Ftracker.coppersurfer.tk%3A6969","udp%3A%2F%2Fexodus.desync.com%3A6969"],"infoHash":"37fa7356938d8094feeb9737786d4279c578814a","infoHashBuffer":{"type":"Buffer","data":[55,250,115,86,147,141,128,148,254,235,151,55,120,109,66,121,197,120,129,74]},"announce":[],"urlList":[]}}